#!OML:ASF X:\für Bonn\!DataBase\2005_08_11_Bastian_Final\c3d\Bastian.ASF
:FULLY-SPECIFIED
:DEGREES
201
root 22.0286 15.9539 -5.45522 549.277 -126.956 -157.021
lowerback 68.9161 -0.508882 11.985
upperback 17.424 5.18269 3.24244
thorax -0.764772 2.25483 -3.12839
lowerneck -5.96152 -9.96374 2.46292
upperneck -24.9972 -12.8155 8.95974
head -6.25031 -7.70802 2.94541
rclavicle -9.54166e-015 -3.02153e-014
rhumerus 59.6059 -0.119882 -29.3642
rradius 25.5205
rwrist -20.8754
rhand -32.695 -14.9335
rfingers 7.12502
rthumb -5.91971 -44.8308
lclavicle -9.54166e-015 -3.02153e-014
lhumerus -6.78585 -34.3847 91.4744
lradius 50.8181
lwrist 33.0612
lhand -13.3345 -16.6463
lfingers 7.12502
lthumb 12.7707 12.9431
rfemur -74.595 -27.0847 24.3856
rtibia 70.3299
rfoot -20.8647 -4.65317
rtoes 9.30394
lfemur -65.5076 -11.1777 -32.9557
ltibia 50.085
lfoot -2.61554 -15.2796
ltoes -15.9486
202
root 22.0189 15.9262 -5.47055 549.348 -127.318 -156.739
lowerback 68.7958 -0.521419 12.0685
upperback 17.4083 5.24204 3.25532
thorax -0.776555 2.29904 -3.1738
lowerneck -5.89744 -10.0964 2.60414
upperneck -25.2967 -12.9571 9.12033
head -6.35471 -7.81888 3.00032
rclavicle -5.40694e-014 -1.22451e-013
rhumerus 59.7505 -0.491218 -29.2573
rradius 25.4314
rwrist -21.0831
rhand -32.697 -15.4061
rfingers 7.12502
rthumb -5.92172 -45.3034
lclavicle -5.40694e-014 -1.22451e-013
lhumerus -6.8965 -34.4376 91.6398
lradius 50.8303
lwrist 32.9413
lhand -13.2537 -16.6831
lfingers 7.12502
lthumb 12.8486 12.9014
rfemur -75.2158 -27.4403 24.5068
rtibia 70.7315
rfoot -21.0434 -4.64568
rtoes 9.35137
lfemur -65.9107 -11.3897 -33.1555
ltibia 50.3169
lfoot -2.603 -15.5212
ltoes -15.8098
203
root 22.0104 15.9007 -5.48471 549.361 -127.69 -156.421
lowerback 68.6925 -0.540906 12.1403
upperback 17.3956 5.28972 3.27787
thorax -0.786831 2.33608 -3.19866
lowerneck -5.85612 -10.2185 2.75218
upperneck -25.5668 -13.0892 9.25872
head -6.44863 -7.92284 3.04468
rclavicle -9.85972e-014 0
rhumerus 59.9202 -0.900532 -29.2583
rradius 25.282
rwrist -21.139
rhand -32.7112 -15.8857
rfingers 7.12502
rthumb -5.93544 -45.7826
lclavicle -9.85972e-014 0
lhumerus -7.07587 -34.4757 91.8386
lradius 50.8836
lwrist 32.7772
lhand -13.1371 -16.7222
lfingers 7.12502
lthumb 12.961 12.8552
rfemur -75.8008 -27.8267 24.5879
rtibia 71.1232
rfoot -21.2381 -4.5899
rtoes 9.48483
lfemur -66.2634 -11.6273 -33.3878
ltibia 50.5424
lfoot -2.60155 -15.7469
ltoes -15.6986
204
root 22.001 15.8726 -5.49859 549.397 -128.055 -156.051
lowerback 68.4955 -0.516269 12.162
upperback 17.4089 5.34131 3.32138
thorax -0.781034 2.37249 -3.18652
lowerneck -5.81077 -10.3322 2.93047
upperneck -25.8445 -13.214 9.37034
head -6.551 -8.02469 3.07783
rclavicle -2.8625e-014 6.36111e-015
rhumerus 60.0398 -1.23379 -28.9675
rradius 25.2303
rwrist -21.5568
rhand -32.835 -16.524
rfingers 7.12502
rthumb -6.05493 -46.4174
lclavicle -2.8625e-014 6.36111e-015
lhumerus -7.22303 -34.5582 92.0176
lradius 50.9382
lwrist 32.719
lhand -13.0909 -16.7516
lfingers 7.12502
lthumb 13.0056 12.823
rfemur -76.4799 -28.2039 24.6841
rtibia 71.5249
rfoot -21.3855 -4.56856
rtoes 9.50862
lfemur -66.6716 -11.8732 -33.6365
ltibia 50.7528
lfoot -2.56652 -15.9909
ltoes -15.4507
205
root 21.9921 15.8463 -5.51351 549.47 -128.42 -155.75
lowerback 68.337 -0.490306 12.1798
upperback 17.4004 5.39941 3.37434
thorax -0.799218 2.40668 -3.16374
lowerneck -5.741 -10.446 3.06682
upperneck -26.0952 -13.3329 9.50333
head -6.64377 -8.12025 3.12371
rclavicle 8.5875e-014 6.36111e-014
rhumerus 60.1735 -1.55711 -28.7653
rradius 25.1364
rwrist -21.9001
rhand -33.0175 -17.1942
rfingers 7.12502
rthumb -6.23108 -47.0826
lclavicle 8.5875e-014 6.36111e-014
lhumerus -7.44067 -34.5513 92.2507
lradius 50.9613
lwrist 32.5084
lhand -13.0625 -16.7746
lfingers 7.12502
lthumb 13.0329 12.7983
rfemur -77.1233 -28.5718 24.8093
rtibia 71.908
rfoot -21.5523 -4.5165
rtoes 9.71659
lfemur -67.0555 -12.0854 -33.8736
ltibia 50.9576
lfoot -2.54762 -16.2446
ltoes -15.6012
206
root 21.983 15.8198 -5.52754 549.441 -128.758 -155.346
lowerback 68.2345 -0.455048 12.1586
upperback 17.3736 5.45017 3.39323
thorax -0.838083 2.43887 -3.15978
lowerneck -5.69502 -10.5333 3.31829
upperneck -26.3266 -13.4216 9.59211
head -6.74079 -8.20629 3.1368
rclavicle -3.18055e-015 7.15625e-014
rhumerus 60.2511 -1.87031 -28.5016
rradius 25.0707
rwrist -22.4149
rhand -33.2276 -17.8623
rfingers 7.12502
rthumb -6.43394 -47.7445
lclavicle -3.18055e-015 7.15625e-014
lhumerus -7.65883 -34.6105 92.423
lradius 50.9949
lwrist 32.3947
lhand -13.0344 -16.7409
lfingers 7.12502
lthumb 13.06 12.8302
rfemur -77.7612 -28.9565 24.872
rtibia 72.2859
rfoot -21.7025 -4.43112
rtoes 9.92076
lfemur -67.4095 -12.3224 -34.1491
ltibia 51.1514
lfoot -2.51979 -16.47
ltoes -15.4087
207
root 21.9742 15.796 -5.54017 549.465 -129.096 -155.066
lowerback 68.1979 -0.442781 12.1952
upperback 17.3374 5.51823 3.42331
thorax -0.876235 2.47772 -3.16868
lowerneck -5.63638 -10.6205 3.54903
upperneck -26.538 -13.5083 9.6817
head -6.832 -8.28864 3.15303
rclavicle -3.18055e-015 -2.70347e-014
rhumerus 60.457 -2.2917 -28.5404
rradius 24.7178
rwrist -22.6062
rhand -33.4203 -18.3955
rfingers 7.12502
rthumb -6.61994 -48.2721
lclavicle -3.18055e-015 -2.70347e-014
lhumerus -7.89551 -34.6621 92.6304
lradius 51.0214
lwrist 32.2002
lhand -13.0481 -16.6948
lfingers 7.12502
lthumb 13.0469 12.8772
rfemur -78.3311 -29.3567 25.0247
rtibia 72.6312
rfoot -21.8337 -4.35513
rtoes 9.93343
lfemur -67.7131 -12.5499 -34.3504
ltibia 51.3488
lfoot -2.53297 -16.6783
ltoes -15.4024
208
root 21.9641 15.7719 -5.55357 549.478 -129.421 -154.777
lowerback 68.2178 -0.414042 12.1675
upperback 17.2718 5.57653 3.45931
thorax -0.95578 2.50334 -3.1416
lowerneck -5.5204 -10.6686 3.72885
upperneck -26.7579 -13.5285 9.79487
head -6.93127 -8.33544 3.18639
rclavicle -3.81667e-014 -1.27222e-014
rhumerus 60.7276 -2.66866 -28.6018
rradius 24.3792
rwrist -22.8546
rhand -33.6097 -18.8892
rfingers 7.12502
rthumb -6.80285 -48.7599
lclavicle -3.81667e-014 -1.27222e-014
lhumerus -8.15742 -34.5843 92.8519
lradius 51.0529
lwrist 32.0275
lhand -13.0158 -16.6238
lfingers 7.12502
lthumb 13.078 12.9462
rfemur -78.8791 -29.7309 25.1503
rtibia 72.9575
rfoot -21.9786 -4.25777
rtoes 10.1355
lfemur -68.0037 -12.7272 -34.5933
ltibia 51.5406
lfoot -2.55212 -16.9137
ltoes -15.4652
209
root 21.955 15.75 -5.56639 549.628 -129.743 -154.666
lowerback 68.2245 -0.392263 12.1874
upperback 17.2426 5.64582 3.5221
thorax -0.989583 2.53396 -3.1059
lowerneck -5.48513 -10.6971 3.87927
upperneck -26.9394 -13.5273 9.91171
head -7.00242 -8.3683 3.21657
rclavicle -6.04305e-014 -3.97569e-014
rhumerus 61.0568 -3.02546 -28.5038
rradius 24.0001
rwrist -23.2883
rhand -33.8751 -19.2893
rfingers 7.12502
rthumb -7.05896 -49.1516
lclavicle -6.04305e-014 -3.97569e-014
lhumerus -8.33862 -34.523 93.0527
lradius 51.0302
lwrist 31.8851
lhand -13.0549 -16.6503
lfingers 7.12502
lthumb 13.0403 12.9221
rfemur -79.4275 -30.0932 25.4319
rtibia 73.2554
rfoot -22.0947 -4.1794
rtoes 10.1708
lfemur -68.3156 -12.9322 -34.6549
ltibia 51.7382
lfoot -2.53291 -17.1061
ltoes -15.2516
210
root 21.9448 15.7282 -5.58017 549.796 -130.057 -154.565
lowerback 68.2662 -0.370748 12.2203
upperback 17.1952 5.72838 3.57457
thorax -1.03912 2.57086 -3.09069
lowerneck -5.4718 -10.724 4.04679
upperneck -27.1138 -13.5245 10.0253
head -7.06967 -8.40161 3.2416
rclavicle 9.85972e-014 7.79236e-014
rhumerus 61.3559 -3.43067 -28.5304
rradius 23.6165
rwrist -23.5537
rhand -34.143 -19.6435
rfingers 7.12502
rthumb -7.31756 -49.497
lclavicle 9.85972e-014 7.79236e-014
lhumerus -8.4994 -34.4952 93.2278
lradius 51.0347
lwrist 31.8095
lhand -13.0922 -16.5782
lfingers 7.12502
lthumb 13.0043 12.9965
rfemur -79.9651 -30.4222 25.7125
rtibia 73.5382
rfoot -22.228 -4.10104
rtoes 10.2525
lfemur -68.6367 -13.1034 -34.7348
ltibia 51.9323
lfoot -2.52079 -17.3261
ltoes -15.2524
